<svg class="injected-svg" id="svg-d60383d0-c3bd-4cb2-bf42-ee2da90e3e05" height="100%" width="100%" viewBox="0 0 540 508" xmlns="http://www.w3.org/2000/svg"><g xmlns="http://www.w3.org/2000/svg" fill="#d68048" id="icon-svg">
	<path transform="translate(178.5, 83.5) scale(0.9,0.9)" d="M 61.360 42.476 C 38.827 46.566, 21.929 57.892, 8.376 77.989 C 3.314 85.497, 2.564 90, 6.378 90 C 7.686 90, 10.273 89.376, 12.128 88.614 C 13.983 87.852, 16.930 86.923, 18.678 86.550 L 21.855 85.873 21.307 93.186 C 20.569 103.033, 22.435 114.517, 25.537 119.222 C 29.132 124.674, 32.685 126.013, 48.909 128.027 C 76.780 131.488, 99.351 136.622, 117.384 143.604 C 128.924 148.072, 140.955 150.984, 147.912 150.993 C 154.783 151.002, 160.646 147.754, 163.760 142.213 L 165.999 138.230 172.249 138.674 C 176.595 138.982, 181.595 138.405, 188.658 136.779 L 198.816 134.440 196.343 130.470 C 194.983 128.286, 191.050 120.650, 187.603 113.500 C 171.838 80.797, 146.117 58.632, 110.500 47.056 C 92.053 41.061, 76.926 39.651, 61.360 42.476 M 68.500 44.402 C 57.055 48.032, 46.048 57.591, 40.156 69.016 C 36.863 75.400, 36.856 75.446, 39.647 72 C 51.100 57.860, 63.323 49.026, 76.251 45.545 C 80.667 44.356, 80.997 44.121, 78.332 44.066 C 76.589 44.030, 74.564 43.805, 73.832 43.566 C 73.099 43.328, 70.700 43.704, 68.500 44.402 M 93.199 48.528 C 78.249 51.187, 63.552 61.018, 57.995 72.075 L 55.772 76.500 61.636 70.445 C 68.360 63.502, 74.799 58.860, 82.278 55.563 C 88.363 52.881, 100.238 50.028, 105.697 49.937 C 108.613 49.888, 109.034 49.689, 107.500 49.085 C 103.206 47.394, 100.227 47.278, 93.199 48.528 M 38.282 52.970 C 33.535 55.864, 27.777 62.146, 24.826 67.652 C 20.431 75.848, 20.547 77.859, 25.018 71 C 27.349 67.425, 32.383 61.462, 36.206 57.750 C 43.351 50.811, 43.901 49.544, 38.282 52.970 M 112.402 58.100 C 101.890 59.429, 93.794 63.306, 85.677 70.899 C 77.996 78.084, 75.298 82.614, 82.526 76.191 C 89.402 70.081, 99.641 64.740, 109 62.384 C 113.862 61.159, 118.145 60.880, 126 61.276 L 136.500 61.806 133 60.026 C 129.018 58.001, 119.915 57.150, 112.402 58.100 M 122 74.591 C 114.755 76.515, 107.328 80.189, 103 83.993 L 99.500 87.068 105.535 84.128 C 117.356 78.370, 125.344 76.526, 138 76.634 C 145.554 76.698, 151.200 77.280, 154.453 78.329 C 157.178 79.208, 159.535 79.799, 159.691 79.642 C 160.497 78.837, 153.572 74.911, 149.818 74.045 C 143.554 72.600, 128.379 72.898, 122 74.591 M 28.383 84.630 C 26.565 85.037, 26.192 86.019, 25.746 91.577 C 25.081 99.860, 26.438 112.013, 28.466 115.934 C 30.944 120.726, 33.612 121.781, 47.500 123.462 C 76.597 126.985, 90.935 130.226, 118.500 139.510 C 146.099 148.805, 154.608 149.047, 159.902 140.687 L 161.878 137.566 154.689 134.938 C 142.164 130.360, 134.684 125.904, 118.300 113.259 C 102.898 101.372, 86.253 92.669, 68.500 87.220 C 61.828 85.173, 58.010 84.715, 45.500 84.461 C 37.250 84.294, 29.547 84.370, 28.383 84.630 M 134.725 91.566 C 128.910 92.975, 117.522 97.855, 118.280 98.614 C 118.504 98.838, 120.492 98.385, 122.696 97.607 C 129.681 95.143, 141.710 93.681, 149.796 94.313 C 158.096 94.963, 165.352 97.118, 174.004 101.502 L 179.463 104.269 176.908 100.884 C 170.457 92.343, 150.089 87.843, 134.725 91.566 M 142.657 111.079 C 138.893 111.505, 135.625 112.042, 135.393 112.274 C 135.162 112.505, 139.621 112.979, 145.303 113.326 C 157.136 114.050, 169.772 117.325, 180.854 122.540 C 184.898 124.443, 188.397 126, 188.629 126 C 188.862 126, 188.354 124.652, 187.503 123.005 C 183.512 115.288, 160.220 109.094, 142.657 111.079" stroke="none" fill-rule="evenodd"></path>
</g><path xmlns="http://www.w3.org/2000/svg" id="SvgjsPath1971595" d="M10.22-14.12L10.22-14.12L9.93-12.95Q7.09-14.12 5.51-14.12L5.51-14.12Q4.10-14.12 3.53-13.70Q2.96-13.27 2.96-11.89L2.96-11.89Q2.96-10.78 3.76-10.05Q4.57-9.32 5.71-8.89Q6.86-8.47 8.01-7.98Q9.17-7.50 9.98-6.56Q10.78-5.63 10.78-4.25L10.78-4.25Q10.78-2.37 9.40-0.97Q8.03 0.44 5.83 0.47L5.83 0.47Q4.22 0.47 2.81-0.21Q1.41-0.88 0.59-1.90L0.59-1.90L1.44-2.78Q1.79-2.64 2.48-2.31Q3.16-1.99 3.46-1.89Q3.75-1.79 4.32-1.67Q4.89-1.55 5.54-1.55L5.54-1.55Q6.91-1.55 7.79-2.17Q8.67-2.78 8.67-3.90L8.67-3.90Q8.67-4.63 8.26-5.14Q7.85-5.65 7.18-5.98Q6.50-6.30 5.70-6.59Q4.89-6.88 4.09-7.25Q3.28-7.62 2.61-8.13Q1.93-8.64 1.52-9.52Q1.11-10.40 1.11-11.60L1.11-11.60Q1.11-13.36 2.07-14.55Q3.02-15.73 4.75-15.73L4.75-15.73Q5.42-15.73 6.27-15.53Q7.12-15.32 7.62-15.15Q8.12-14.97 9.10-14.58Q10.08-14.18 10.22-14.12ZM21.27-14.71L21.27-14.71L22.68-14.44L22.68-14.15Q22.68-12.16 22.92-7.41Q23.17-2.67 23.38-0.09L23.38-0.09Q22.79 0.15 22.27 0.15L22.27 0.15Q21.80 0.15 21.21 0L21.21 0L20.98-0.76Q19.10 0.29 17.40 0.29L17.40 0.29Q16.14 0.29 15.22-0.29Q14.30-0.88 13.80-1.74Q13.30-2.61 13.01-3.88Q12.71-5.16 12.64-6.20Q12.57-7.24 12.57-8.53L12.57-8.53Q12.57-12.28 13.04-15.41L13.04-15.41L14.36-15.12Q14.56-14.15 14.56-13.01L14.56-13.01Q14.56-12.36 14.49-10.78Q14.41-9.20 14.41-8.38L14.41-8.38Q14.41-6.94 14.55-5.90Q14.68-4.86 15.04-3.88Q15.41-2.90 16.17-2.37Q16.93-1.85 18.08-1.85L18.08-1.85Q19.37-1.85 20.86-2.43L20.86-2.43Q20.92-3.52 20.98-7.98Q21.04-12.45 21.27-14.71ZM34.78-14.12L34.78-14.12L34.48-12.95Q31.64-14.12 30.06-14.12L30.06-14.12Q28.65-14.12 28.08-13.70Q27.51-13.27 27.51-11.89L27.51-11.89Q27.51-10.78 28.32-10.05Q29.12-9.32 30.26-8.89Q31.41-8.47 32.56-7.98Q33.72-7.50 34.53-6.56Q35.33-5.63 35.33-4.25L35.33-4.25Q35.33-2.37 33.96-0.97Q32.58 0.44 30.38 0.47L30.38 0.47Q28.77 0.47 27.36-0.21Q25.96-0.88 25.14-1.90L25.14-1.90L25.99-2.78Q26.34-2.64 27.03-2.31Q27.71-1.99 28.01-1.89Q28.30-1.79 28.87-1.67Q29.44-1.55 30.09-1.55L30.09-1.55Q31.46-1.55 32.34-2.17Q33.22-2.78 33.22-3.90L33.22-3.90Q33.22-4.63 32.81-5.14Q32.40-5.65 31.73-5.98Q31.05-6.30 30.25-6.59Q29.44-6.88 28.64-7.25Q27.83-7.62 27.16-8.13Q26.48-8.64 26.07-9.52Q25.66-10.40 25.66-11.60L25.66-11.60Q25.66-13.36 26.62-14.55Q27.57-15.73 29.30-15.73L29.30-15.73Q29.97-15.73 30.82-15.53Q31.67-15.32 32.17-15.15Q32.67-14.97 33.65-14.58Q34.63-14.18 34.78-14.12ZM37.27-21.09L37.27-21.09L38.79-20.74Q38.88-19.54 38.92-16.90Q38.96-14.27 39.02-13.27L39.02-13.27Q40.61-14.94 42.83-14.94L42.83-14.94Q44.82-14.94 46.27-13.54Q47.72-12.13 47.72-9.79L47.72-9.79L47.72-0.15Q47.34 0.03 46.76 0.03L46.76 0.03Q46.11 0.03 45.59-0.09L45.59-0.09Q45.59-0.32 45.60-0.81Q45.62-1.29 45.62-1.52L45.62-1.52Q45.62-2.67 45.53-5.46Q45.44-8.26 45.44-10.14L45.44-10.14Q45-12.83 42.71-12.83L42.71-12.83Q41.72-12.83 40.75-12.29Q39.79-11.75 39.35-11.02L39.35-11.02Q39.43-9.17 39.46-5.45Q39.49-1.73 39.55-0.09L39.55-0.09Q38.85 0.03 38.35 0.03L38.35 0.03Q37.62 0.03 37.12-0.15L37.12-0.15Q37.18-1.58 37.18-4.69L37.18-4.69Q37.18-6.06 37.15-9.74Q37.12-13.42 37.13-16.07Q37.15-18.72 37.27-21.09ZM50.77-15.06L50.77-15.06L52.12-14.77Q52.35-12.36 52.53-7.22Q52.71-2.08 52.76-0.85L52.76-0.85Q52.50 0.06 51.74 0.06L51.74 0.06Q51.21 0.06 50.73-0.37Q50.24-0.79 50.13-1.41L50.13-1.41Q50.19-2.61 50.36-7.66Q50.54-12.71 50.77-15.06ZM51.18-20.30L51.18-20.30Q51.97-20.30 52.50-19.61Q53.03-18.93 53.03-18.05L53.03-18.05Q53.03-17.40 52.72-17.01Q52.41-16.61 51.88-16.61L51.88-16.61Q51.06-16.61 50.60-17.29Q50.13-17.96 50.13-18.87L50.13-18.87Q50.13-19.51 50.41-19.91Q50.68-20.30 51.18-20.30Z" fill="#000000" fontsize="30" transform="matrix(1,0,0,1,241.19,372.80999999999995)"></path><path xmlns="http://www.w3.org/2000/svg" id="SvgjsPath1971669" d="M8.90-27.40L8.90-27.40Q7.70-29.10 7.70-29.80L7.70-29.80Q7.70-29.80 7.85-30.30Q8-30.80 8.15-31.40Q8.30-32 8.45-32.55Q8.60-33.10 8.60-33.30L8.60-33.30Q8.60-34.40 8.45-35.60Q8.30-36.80 8.30-37.90L8.30-37.90Q8.30-38.50 8.55-39.05Q8.80-39.60 8.80-40.10L8.80-40.10Q8.80-41.30 8.40-42.65Q8-44 8-45.60L8-45.60Q8-46.70 8.05-47.75Q8.10-48.80 8.10-49.90L8.10-49.90Q8.10-51.40 7.80-53.35Q7.50-55.30 7.50-57.50L7.50-57.50Q7.50-58.90 7.55-60.35Q7.60-61.80 7.60-63.20L7.60-63.20Q7.60-64.30 7.30-65.40Q7-66.50 7-67.70L7-67.70Q7-69.10 8.95-69.75Q10.90-70.40 13.70-70.40L13.70-70.40Q14.60-70.40 15.25-70.25Q15.90-70.10 16.70-70.10L16.70-70.10Q20.50-70.10 24.45-70.95Q28.40-71.80 32.10-71.80L32.10-71.80Q34.30-71.80 36-71.40L36-71.40L35.90-71.40Q35.90-71.50 36.60-71.50L36.60-71.50Q37.20-71.50 38.15-71.40Q39.10-71.30 39.95-71.05Q40.80-70.80 41.40-70.40Q42-70 42-69.30L42-69.30Q42-68.10 41.55-67.10Q41.10-66.10 38.90-66.10L38.90-66.10Q37.70-66.10 36.50-66.40Q35.30-66.70 34.10-66.70L34.10-66.70Q34.10-66.70 32.95-66.60Q31.80-66.50 30.05-66.30Q28.30-66.10 26.30-65.85Q24.30-65.60 22.55-65.20Q20.80-64.80 19.65-64.30Q18.50-63.80 18.50-63.20L18.50-63.20Q18.60-62.40 18.85-61.45Q19.10-60.50 19.10-59.50L19.10-59.50Q19.10-58.70 18.90-57.95Q18.70-57.20 18.70-56.40L18.70-56.40Q18.70-56.10 18.75-55.75Q18.80-55.40 18.80-55.10L18.80-55.10Q18.80-54.40 18.65-53.80Q18.50-53.20 18.50-52.50L18.50-52.50Q18.50-52 18.60-51.55Q18.70-51.10 18.70-50.60L18.70-50.60Q18.70-49.80 18.35-48.65Q18-47.50 18-46.40L18-46.40Q18-44.20 18-42.95Q18-41.70 18.20-41.05Q18.40-40.40 18.75-40.25Q19.10-40.10 19.90-40.10L19.90-40.10Q21.80-40.10 22.95-40.20Q24.10-40.30 25-40.40Q25.90-40.50 26.75-40.60Q27.60-40.70 28.80-40.70L28.80-40.70Q29.90-40.70 31.20-40.55Q32.50-40.40 33.60-39.85Q34.70-39.30 35.40-38.35Q36.10-37.40 36.10-35.80L36.10-35.80Q36.10-34.40 34.80-34Q33.50-33.60 32.40-33.60L32.40-33.60Q31.90-33.60 31.50-33.60Q31.10-33.60 30.65-33.65Q30.20-33.70 29.55-33.70Q28.90-33.70 27.90-33.70L27.90-33.70Q26.60-33.70 25.10-33.65Q23.60-33.60 22.25-33.35Q20.90-33.10 19.90-32.70Q18.90-32.30 18.80-31.60L18.80-31.60Q18.80-29.30 18.15-27Q17.50-24.70 17.50-23.30L17.50-23.30Q17.50-23.10 17.60-22.80Q17.70-22.50 17.90-22.50L17.90-22.50Q18.30-22.50 18.60-22.60Q18.90-22.70 19.20-22.70L19.20-22.70Q19.40-22.70 19.70-22.55Q20-22.40 20-22.20L20-22.20Q20-21.90 19.95-21.65Q19.90-21.40 19.90-21.20L19.90-21.20Q19.90-18.90 20.20-16.75Q20.50-14.60 20.50-12.30L20.50-12.30Q20.50-11.30 20.45-10.40Q20.40-9.50 20.40-8.50L20.40-8.50Q20.40-7.30 20.75-6.20Q21.10-5.10 21.10-4.20L21.10-4.20Q21.10-3.40 20.85-2.25Q20.60-1.10 19.85 0.05Q19.10 1.20 17.65 2Q16.20 2.80 13.70 2.80L13.70 2.80Q13.20 2.80 12.80 2.40Q12.40 2 11.90 2L11.90 2Q11.50 2 11 2.15Q10.50 2.30 10 2.50L10 2.50Q9.90 2.50 9.70 2.30L9.70 2.30Q9.70 1.70 10 1.50Q10.30 1.30 10.30 0.60L10.30 0.60Q9.60-1.10 9.10-2.55Q8.60-4 8.60-5.70L8.60-5.70Q8.60-6.20 8.65-6.75Q8.70-7.30 8.70-7.80L8.70-7.80Q8.70-8.60 8.30-9.45Q7.90-10.30 7.90-11.30L7.90-11.30Q7.90-13 8-14.75Q8.10-16.50 8.10-18.30L8.10-18.30Q8.10-19.50 7.95-20.70Q7.80-21.90 7.80-23.20L7.80-23.20Q7.80-25.50 8.90-27.40ZM17.40-28.70L17.40-28.70Q17.30-29.50 17.30-30.10Q17.30-30.70 16.80-31.20L16.80-31.20Q16.30-31.20 16.20-30.40Q16.10-29.60 16.10-29.10L16.10-29.10Q16.10-28 16.70-26.80L16.70-26.80Q17.20-27.10 17.25-27.70Q17.30-28.30 17.40-28.70ZM14.30-29L14.30-29Q14.30-29.30 14.15-29.80Q14-30.30 13.80-30.30L13.80-30.30Q13.40-30.30 13.25-29.95Q13.10-29.60 13.10-29.20L13.10-29.20Q13.10-28.80 13.25-28.45Q13.40-28.10 13.90-28.10L13.90-28.10Q14.10-28.10 14.15-28.40Q14.20-28.70 14.30-29ZM14-20.70L14-20.70Q14.40-21.20 14.40-21.90L14.40-21.90Q14.40-22.50 14.10-23.10L14.10-23.10Q13.90-22.70 13.80-22.40Q13.70-22.10 13.70-21.70L13.70-21.70Q13.70-21.10 14-20.70ZM13.90-40.60L13.90-40.60Q13.70-40.20 13.60-40.10L13.60-40.10Q13.60-40 13.80-39.80L13.80-39.80Q14.20-39.80 14.20-40.20L14.20-40.20Q14.20-40.30 14.10-40.35Q14-40.40 13.90-40.60ZM92.10-60.50L92.10-60.50Q92.10-60.10 92.55-59.35Q93-58.60 93.60-57.65Q94.20-56.70 94.75-55.60Q95.30-54.50 95.50-53.40L95.50-53.40Q95.90-51.50 96.50-49.75Q97.10-48 97.70-46.20L97.70-46.20Q97.20-45.20 97-44.20Q96.80-43.20 96.80-42.90L96.80-42.90Q96.80-42.10 97.45-40.20Q98.10-38.30 98.10-36.40L98.10-36.40Q98.10-35.90 98.05-35.50Q98-35.10 98-34.60L98-34.60Q98-34.10 98.05-33.65Q98.10-33.20 98.20-32.70L98.20-32.70Q98-32.70 97.90-32.60L97.90-32.60Q98.10-32.80 98.10-32.80L98.10-32.80Q98.50-32.40 98.50-31.90L98.50-31.90Q98.50-31.40 98.30-31.20L98.30-31.20Q98-30.80 97.85-29.90Q97.70-29 97.50-28.05Q97.30-27.10 97.05-26.40Q96.80-25.70 96.40-25.70L96.40-25.70Q96.50-25.60 96.50-25.40L96.50-25.40Q96.50-25.40 96.30-25.50L96.30-25.50Q96.40-25.60 96.50-25.60L96.50-25.60Q96.50-24.90 96.20-23.20Q95.90-21.50 95.30-19.30Q94.70-17.10 93.60-14.65Q92.50-12.20 90.80-10.10L90.80-10.10Q89.80-7.50 87.65-5.35Q85.50-3.20 82.85-1.60Q80.20 0 77.25 0.85Q74.30 1.70 71.80 1.70L71.80 1.70Q67.40 1.70 63.20-0.40L63.20-0.40Q61.50-1.20 60-2.95Q58.50-4.70 56.60-5.90L56.60-5.90Q55.80-6 54.95-7.35Q54.10-8.70 53.30-10.40Q52.50-12.10 51.65-13.70Q50.80-15.30 49.90-16.10L49.90-16.10Q49.90-16.10 49.55-16.95Q49.20-17.80 48.75-19Q48.30-20.20 47.95-21.45Q47.60-22.70 47.60-23.50L47.60-23.50Q47.60-24 47.70-24.50Q47.80-25 47.80-25.50L47.80-25.50Q47.80-26.50 47.45-27.65Q47.10-28.80 47.10-30.10L47.10-30.10Q47.10-30.50 47.15-30.80Q47.20-31.10 47.20-31.50L47.20-31.50Q47.20-32.40 47.10-33.30Q47-34.20 47-35.10L47-35.10Q47-36.80 47.15-39.60Q47.30-42.40 47.90-45.80Q48.50-49.20 49.70-53Q50.90-56.80 53-60.50L53-60.50Q54-62.30 55.05-64.30Q56.10-66.30 57.35-67.90Q58.60-69.50 60.25-70.55Q61.90-71.60 64.30-71.60L64.30-71.60Q64.90-71.60 65.55-71.45Q66.20-71.30 66.80-71.30L66.80-71.30Q68.50-71.30 70.95-72.10Q73.40-72.90 75.70-72.90L75.70-72.90Q78.20-72.90 80.20-72.45Q82.20-72 84.40-70.90L84.40-70.90Q85.10-70.50 85.95-69.20Q86.80-67.90 87.80-67.70L87.80-67.70Q89.60-66 90.30-65.15Q91-64.30 91.20-63.65Q91.40-63 91.45-62.35Q91.50-61.70 92.10-60.50ZM66.50-9.60L66.50-9.60Q66.40-9.70 66.40-9.75Q66.40-9.80 66.30-9.90L66.30-9.90L66.10-9.80Q66.10-9.60 66.30-9.60L66.30-9.60Q66.30-9.60 66.50-9.70L66.50-9.70Q66.50-9.40 66.55-9.35Q66.60-9.30 66.70-9.20L66.70-9.20Q66.80-9.30 66.80-9.40L66.80-9.40Q66.80-9.40 66.50-9.60ZM68.80-8.70L68.80-8.70Q69.50-8.70 70.50-8.40Q71.50-8.10 72.60-7.70Q73.70-7.30 74.70-7Q75.70-6.70 76.40-6.70L76.40-6.70Q77.60-6.70 78.80-7.30L78.80-7.30Q82-8.80 84.75-11.85Q87.50-14.90 89.50-18.70Q91.50-22.50 92.60-26.70Q93.70-30.90 93.70-34.70L93.70-34.70Q93.70-37.30 93.55-40.25Q93.40-43.20 92.60-45.50L92.60-45.50Q92.10-46.80 92.20-48.15Q92.30-49.50 91.60-50.70L91.60-50.70Q91.50-50.80 91.50-51L91.50-51Q91.50-51.30 91.60-51.55Q91.70-51.80 91.70-52L91.70-52Q91.70-53.20 90.85-54.65Q90-56.10 88.90-57.60Q87.80-59.10 86.70-60.60Q85.60-62.10 85-63.30L85-63.30Q84.80-63.80 83.50-64.55Q82.20-65.30 81.60-66.10L81.60-66.10Q80.60-67.30 79.25-67.40Q77.90-67.50 77-68.40L77-68.40Q76.70-68.60 75.25-69.05Q73.80-69.50 72.70-69.50L72.70-69.50Q72.30-69.50 71.10-68.30Q69.90-67.10 68.55-65.40Q67.20-63.70 66.05-61.95Q64.90-60.20 64.50-59.10L64.50-59.10Q63.40-56 61.70-52.75Q60-49.50 59.60-46.60L59.60-46.60Q59.30-44.40 58.40-42.15Q57.50-39.90 57.50-37.60L57.50-37.60Q57.50-37.10 57.70-36.75Q57.90-36.40 57.90-36L57.90-36Q57.90-35.60 57.85-35.25Q57.80-34.90 57.80-34.60L57.80-34.60Q57.80-33.10 58.20-31.65Q58.60-30.20 58.60-28.80L58.60-28.80Q58.60-28.30 58.45-27.90Q58.30-27.50 58.30-27.10L58.30-27.10Q58.30-26.20 59.10-25.30Q59.90-24.40 59.90-23.20L59.90-23.20Q59.90-22.90 59.80-22.60Q59.70-22.30 59.70-22L59.70-22Q59.70-21.90 59.95-21.45Q60.20-21 60.55-20.40Q60.90-19.80 61.25-19.25Q61.60-18.70 61.80-18.30L61.80-18.30Q63.10-15.50 65.15-13.40Q67.20-11.30 68.90-8.80L68.90-8.80L68.70-8.60Q68.70-8.70 68.65-8.70Q68.60-8.70 68.60-8.80L68.60-8.80Q68.70-8.80 68.70-8.75Q68.70-8.70 68.80-8.70ZM95.40-50.50L95.40-50.50Q95.20-50.60 95.10-50.60Q95-50.60 94.80-50.70L94.80-50.70Q94.80-50.30 95-50.30L95-50.30Q95.20-50.30 95.40-50.50ZM60-16.10L60-16.10Q60.10-16.10 60.20-16.20L60.20-16.20Q60.20-16.40 60.10-16.40L60.10-16.40Q59.90-16.40 59.90-16.30L59.90-16.30Q59.90-16.20 59.95-16.20Q60-16.20 60-16.10ZM92.10-60.70L92.10-60.40Q92.10-60.50 92-60.50L92-60.50Q92-60.60 92.10-60.70L92.10-60.70Z" fill="#000000" fontsize="100" transform="matrix(1,0,0,1,214.75,326.55)"></path></svg>