<svg xmlns="http://www.w3.org/2000/svg" viewBox="0 0 540 720"><defs><style>.cls-1{fill:#d68048;fill-rule:evenodd;}</style></defs><g id="big"><path id="sushi-text" d="M230.48,582.57h0l-.62,2.49c-4-1.66-7.16-2.49-9.4-2.49h0a7.38,7.38,0,0,0-4.2.89c-.81.61-1.22,1.89-1.22,3.85h0a5.08,5.08,0,0,0,1.7,3.91,12.85,12.85,0,0,0,4.15,2.47c1.63.59,3.26,1.24,4.89,1.93a11.08,11.08,0,0,1,4.19,3,7.3,7.3,0,0,1,1.7,4.91h0a9.62,9.62,0,0,1-2.94,7,10.37,10.37,0,0,1-7.59,3.06h0a14.52,14.52,0,0,1-6.42-1.45,13.45,13.45,0,0,1-4.72-3.59h0l1.81-1.87c.5.2,1.23.53,2.21,1a22.4,22.4,0,0,0,2.09.89,16.81,16.81,0,0,0,1.82.47,12.68,12.68,0,0,0,2.6.25h0a8.1,8.1,0,0,0,4.78-1.32,4.2,4.2,0,0,0,1.87-3.67h0a4.07,4.07,0,0,0-.87-2.64,6.74,6.74,0,0,0-2.3-1.79c-1-.45-2-.88-3.14-1.29s-2.29-.88-3.42-1.41a15.87,15.87,0,0,1-3.15-1.87,7.6,7.6,0,0,1-2.32-2.95,10.4,10.4,0,0,1-.87-4.42h0a9.64,9.64,0,0,1,2-6.27,6.89,6.89,0,0,1,5.7-2.51h0a14.39,14.39,0,0,1,3.23.42c1.21.3,2.16.57,2.87.81s1.76.66,3.15,1.21ZM254,581.31h0l3,.58v.62q0,4.23.51,14.32t1,15.57h0a6.33,6.33,0,0,1-2.36.51h0a9.43,9.43,0,0,1-2.26-.32h0l-.49-1.62a15.61,15.61,0,0,1-7.61,2.23h0a8.51,8.51,0,0,1-4.63-1.23,9,9,0,0,1-3-3.08,16.39,16.39,0,0,1-1.68-4.55,30.49,30.49,0,0,1-.79-4.93c-.1-1.48-.15-3.13-.15-5h0a99.58,99.58,0,0,1,1-14.62h0l2.81.61a22.54,22.54,0,0,1,.42,4.49h0c0,.92,0,2.5-.14,4.74s-.17,3.94-.17,5.1h0a41.79,41.79,0,0,0,.29,5.27,19.16,19.16,0,0,0,1,4.3,6.59,6.59,0,0,0,2.4,3.21,7,7,0,0,0,4.06,1.11h0a16.41,16.41,0,0,0,5.91-1.24h0q.12-2.31.25-11.8T254,581.31Zm28.72,1.26h0l-.64,2.49q-6-2.49-9.39-2.49h0a7.41,7.41,0,0,0-4.21.89c-.81.61-1.21,1.89-1.21,3.85h0a5,5,0,0,0,1.72,3.91,12.6,12.6,0,0,0,4.12,2.47c1.63.59,3.26,1.24,4.89,1.93a11,11,0,0,1,4.19,3,7.3,7.3,0,0,1,1.7,4.91h0a9.67,9.67,0,0,1-2.91,7,10.45,10.45,0,0,1-7.61,3.06h0a14.52,14.52,0,0,1-6.42-1.45,13.27,13.27,0,0,1-4.72-3.59h0l1.8-1.87c.5.2,1.24.53,2.22,1a21.41,21.41,0,0,0,2.08.89,16.49,16.49,0,0,0,1.83.47,12.58,12.58,0,0,0,2.59.25h0A8.08,8.08,0,0,0,277.5,608a4.2,4.2,0,0,0,1.88-3.67h0a4,4,0,0,0-.88-2.64,6.7,6.7,0,0,0-2.29-1.79c-1-.45-2-.88-3.15-1.29s-2.29-.88-3.42-1.41a15.87,15.87,0,0,1-3.15-1.87,7.7,7.7,0,0,1-2.32-2.95,10.4,10.4,0,0,1-.87-4.42h0a9.64,9.64,0,0,1,2-6.27,6.89,6.89,0,0,1,5.7-2.51h0a14.39,14.39,0,0,1,3.23.42c1.21.3,2.16.57,2.87.81s1.76.66,3.15,1.21Zm5.3-14.82h0l3.23.75c.12,1.7.22,4.42.27,8.16s.13,6.3.22,7.72h0a10.77,10.77,0,0,1,8.1-3.55h0a10.18,10.18,0,0,1,7.31,3,10.64,10.64,0,0,1,3.08,8h0v20.5a4.86,4.86,0,0,1-2,.38h0a11.16,11.16,0,0,1-2.49-.25h0q0-.49,0-1.53c0-.68,0-1.19,0-1.51h0c0-1.63-.07-4.43-.19-8.38s-.19-7.28-.19-10h0c-.63-3.81-2.56-5.72-5.81-5.72h0a8.47,8.47,0,0,0-4.17,1.15,7.87,7.87,0,0,0-3,2.7h0q.16,3.93.23,11.84c0,5.27.11,9.07.19,11.4h0a15.34,15.34,0,0,1-2.55.25h0a7.91,7.91,0,0,1-2.61-.38h0c.08-2,.12-5.24.12-9.65h0q0-2.91-.06-10.74t0-13.46Q287.74,572.79,288,567.75Zm28.7,12.82h0l2.87.62q.48,5.12.87,16t.49,13.54h0c-.37,1.29-1.09,1.94-2.17,1.94h0a3.2,3.2,0,0,1-2.15-.92,3.65,3.65,0,0,1-1.27-2.21h0q.12-2.55.48-13.29T316.69,580.57Zm.87-11.14h0a3.4,3.4,0,0,1,2.8,1.47,5.19,5.19,0,0,1,1.13,3.31h0a3.47,3.47,0,0,1-.66,2.22,2.15,2.15,0,0,1-1.78.85h0a3.11,3.11,0,0,1-2.72-1.45,5.68,5.68,0,0,1-1-3.36h0a3.75,3.75,0,0,1,.59-2.21A1.88,1.88,0,0,1,317.56,569.43Z"/><path id="name" d="M171.46,456h0q-2.55-3.62-2.55-5.1h0l.32-1.07c.21-.71.42-1.49.64-2.34s.42-1.66.63-2.44a7,7,0,0,0,.32-1.6h0a38,38,0,0,0-.32-4.88,40.13,40.13,0,0,1-.31-4.89h0a5.75,5.75,0,0,1,.53-2.45,5.45,5.45,0,0,0,.53-2.23h0a19.33,19.33,0,0,0-.85-5.42,22,22,0,0,1-.85-6.27h0c0-1.56,0-3.09.1-4.58s.11-3,.11-4.57h0a48.26,48.26,0,0,0-.64-7.33,58.72,58.72,0,0,1-.64-8.82h0q0-3,.11-6.06t.11-6.06h0a18,18,0,0,0-.64-4.68,18.32,18.32,0,0,1-.64-4.89h0c0-2,1.38-3.44,4.15-4.36a32.21,32.21,0,0,1,10.1-1.38h0a15,15,0,0,1,3.29.32,13.88,13.88,0,0,0,3.08.32h0a77.86,77.86,0,0,0,16.48-1.81,77.57,77.57,0,0,1,16.26-1.81h0a36.7,36.7,0,0,1,8.29.85h-.21c0-.14.5-.21,1.49-.21h0q1.28,0,3.3.21a21.71,21.71,0,0,1,3.82.75,11.15,11.15,0,0,1,3.09,1.38,2.67,2.67,0,0,1,1.27,2.34h0a11.26,11.26,0,0,1-1,4.68q-.94,2.12-5.63,2.12h0a20.72,20.72,0,0,1-5.1-.64,21.19,21.19,0,0,0-5.1-.63h0l-2.45.21q-2.44.21-6.16.64c-2.49.28-5.14.6-8,.95s-5.49.82-8,1.39a35,35,0,0,0-6.17,1.91c-1.62.71-2.44,1.49-2.44,2.34h0a29.37,29.37,0,0,0,.74,3.72,15.94,15.94,0,0,1,.54,4.14h0a12.87,12.87,0,0,1-.43,3.3,12.85,12.85,0,0,0-.42,3.29h0a10,10,0,0,0,.1,1.39,9.83,9.83,0,0,1,.11,1.38h0a11.48,11.48,0,0,1-.32,2.76,11.51,11.51,0,0,0-.32,2.77h0a9.48,9.48,0,0,0,.21,2,9.33,9.33,0,0,1,.22,2h0a14.57,14.57,0,0,1-.75,4.14,16.6,16.6,0,0,0-.74,4.78h0v7.34a14.74,14.74,0,0,0,.42,4,2.54,2.54,0,0,0,1.17,1.7,6.81,6.81,0,0,0,2.45.32h0q4,0,6.48-.21c1.63-.15,3.08-.29,4.36-.43l3.72-.42a36.07,36.07,0,0,1,4.36-.22h0a45.27,45.27,0,0,1,5.1.32,15.15,15.15,0,0,1,5.1,1.49,10.47,10.47,0,0,1,3.83,3.19,9,9,0,0,1,1.49,5.42h0a3.64,3.64,0,0,1-2.77,3.83,17.64,17.64,0,0,1-5.1.85h-1.91a16.7,16.7,0,0,1-1.81-.11,21.86,21.86,0,0,0-2.34-.11h-3.51q-2.76,0-5.95.11a40,40,0,0,0-6.06.64,25.84,25.84,0,0,0-5,1.38q-2.13.86-2.34,2.34h0a35.86,35.86,0,0,1-1.38,9.78,30.24,30.24,0,0,0-1.39,7.86h0a3.33,3.33,0,0,0,.22,1.07c.14.42.35.64.63.64h0a4.73,4.73,0,0,0,1.49-.22,4.08,4.08,0,0,1,1.28-.21h0a2.53,2.53,0,0,1,1.06.32c.43.21.64.46.64.74h0a6,6,0,0,1-.11,1.17,5.05,5.05,0,0,0-.1,1h0a69.26,69.26,0,0,0,.63,9.46,67.69,67.69,0,0,1,.64,9.46h0c0,1.42,0,2.76-.1,4s-.11,2.62-.11,4h0a16.22,16.22,0,0,0,.74,4.89,14.07,14.07,0,0,1,.75,4.25h0a20.42,20.42,0,0,1-.53,4.15,14.87,14.87,0,0,1-2.13,4.89,12.71,12.71,0,0,1-4.68,4.14,17.35,17.35,0,0,1-8.39,1.7h0a2.65,2.65,0,0,1-1.92-.85,2.65,2.65,0,0,0-1.91-.85h0a6.74,6.74,0,0,0-1.91.32,22.54,22.54,0,0,0-2.13.75h0c-.14,0-.36-.15-.64-.43h0a1.9,1.9,0,0,1,.64-1.7c.42-.28.64-.92.64-1.91h0c-1-2.41-1.85-4.65-2.55-6.7a20.42,20.42,0,0,1-1.07-6.7h0c0-.71,0-1.45.11-2.23s.11-1.52.11-2.23h0a8.29,8.29,0,0,0-.85-3.51,9.11,9.11,0,0,1-.86-3.93h0c0-2.41.08-4.86.22-7.34s.21-5,.21-7.55h0a41.57,41.57,0,0,0-.32-5.1,43.29,43.29,0,0,1-.32-5.31h0A17.49,17.49,0,0,1,171.46,456Zm18.07-2.77h0a24.54,24.54,0,0,1-.21-3,3.29,3.29,0,0,0-1.06-2.34h0c-.71,0-1.14.57-1.28,1.7a23.56,23.56,0,0,0-.21,2.76h0a10.92,10.92,0,0,0,1.27,4.89h0a2.32,2.32,0,0,0,1.17-1.91A13.86,13.86,0,0,1,189.53,453.22Zm-6.59-.63h0a6.3,6.3,0,0,0-.32-1.7c-.21-.71-.46-1.07-.74-1.07h0a1.16,1.16,0,0,0-1.17.75,4,4,0,0,0-.32,1.59h0a4.08,4.08,0,0,0,.32,1.6,1.34,1.34,0,0,0,1.38.74h0c.28,0,.46-.21.53-.64A8.44,8.44,0,0,1,182.94,452.59Zm-.64,17.64h0a3.94,3.94,0,0,0,.85-2.55h0a5.71,5.71,0,0,0-.63-2.55h0a10.55,10.55,0,0,0-.64,1.49,4.74,4.74,0,0,0-.21,1.49h0A3.44,3.44,0,0,0,182.3,470.23Zm-.21-42.3h0a4.92,4.92,0,0,1-.64,1.06h0c0,.14.14.35.43.64h0a.76.76,0,0,0,.85-.85h0a.33.33,0,0,0-.21-.32A1.1,1.1,0,0,1,182.09,427.93Zm166.25-42.31h0a5.42,5.42,0,0,0,1,2.44c.64,1.07,1.38,2.27,2.23,3.62A49.4,49.4,0,0,1,354,396a17.1,17.1,0,0,1,1.59,4.67h0a65.81,65.81,0,0,0,2.13,7.76q1.28,3.72,2.55,7.55h0a16.73,16.73,0,0,0-1.49,4.25,19.44,19.44,0,0,0-.43,2.77h0a21.18,21.18,0,0,0,1.39,5.74,24.8,24.8,0,0,1,1.38,8.07h0a15.8,15.8,0,0,1-.11,1.92,15.65,15.65,0,0,0-.1,1.91h0a18.58,18.58,0,0,0,.1,2c.07.64.18,1.31.32,2h0a.88.88,0,0,0-.64.21h0l.43-.42h0a2.61,2.61,0,0,1,.85,1.91h0a2,2,0,0,1-.43,1.49h0a6.59,6.59,0,0,0-.95,2.76c-.22,1.28-.46,2.59-.75,3.94a27.44,27.44,0,0,1-.95,3.5c-.36,1-.82,1.49-1.39,1.49h0a.84.84,0,0,1,.22.64h0l-.43-.21h0a.64.64,0,0,1,.43-.22h0a35,35,0,0,1-.64,5.11c-.43,2.41-1.06,5.17-1.91,8.29a67.55,67.55,0,0,1-3.62,9.88,43.83,43.83,0,0,1-5.95,9.68h0a29,29,0,0,1-6.7,10.1,54,54,0,0,1-10.2,8,49.65,49.65,0,0,1-11.91,5.21,42.19,42.19,0,0,1-11.58,1.8h0a40.4,40.4,0,0,1-18.29-4.46h0a20.56,20.56,0,0,1-6.8-5.42,32.11,32.11,0,0,0-7.23-6.27h0q-1.69-.21-3.51-3.09a62.18,62.18,0,0,1-3.51-6.48q-1.69-3.61-3.5-7a18.68,18.68,0,0,0-3.72-5.1h0l-.75-1.81q-.74-1.8-1.7-4.35c-.64-1.7-1.2-3.44-1.7-5.21a16.72,16.72,0,0,1-.74-4.36h0a11,11,0,0,1,.21-2.13,10.88,10.88,0,0,0,.21-2.12h0a15.92,15.92,0,0,0-.74-4.57,17.69,17.69,0,0,1-.75-5.21h0a9.17,9.17,0,0,1,.11-1.49,9.26,9.26,0,0,0,.11-1.49h0a35.27,35.27,0,0,0-.22-3.83,34.93,34.93,0,0,1-.21-3.82h0q0-3.62.32-9.57a109.9,109.9,0,0,1,1.59-13.18,121,121,0,0,1,3.83-15.31,82.56,82.56,0,0,1,7-15.94h0c1.41-2.55,2.87-5.25,4.35-8.08a50.18,50.18,0,0,1,4.89-7.65,24.6,24.6,0,0,1,6.17-5.64,15.71,15.71,0,0,1,8.61-2.23h0a12,12,0,0,1,2.66.32,11.92,11.92,0,0,0,2.66.32h0a29.49,29.49,0,0,0,8.82-1.7,32.28,32.28,0,0,1,10.1-1.7h0a43.53,43.53,0,0,1,9.56.95,39.51,39.51,0,0,1,8.93,3.3h0a11.19,11.19,0,0,1,3.3,3.61c1.2,1.84,2.51,2.91,3.93,3.19h0a71.65,71.65,0,0,1,5.32,5.42,10,10,0,0,1,1.91,3.19,12.78,12.78,0,0,1,.53,2.77A11.82,11.82,0,0,0,348.34,385.62ZM293.92,493.83h0c-.14-.14-.22-.25-.22-.32s-.07-.18-.21-.32h0l-.42.22a.37.37,0,0,0,.42.42h0l.43-.21h0a1.44,1.44,0,0,0,.1.74l.32.32h0a.62.62,0,0,0,.22-.42h0Zm4.89,1.91h0a13.17,13.17,0,0,1,3.61.64c1.42.43,2.91.92,4.47,1.49s3,1.06,4.46,1.49A13.17,13.17,0,0,0,315,500h0a11.33,11.33,0,0,0,5.11-1.28h0a40.16,40.16,0,0,0,12.65-9.67,71.25,71.25,0,0,0,10.09-14.57,79.47,79.47,0,0,0,6.6-17,67.63,67.63,0,0,0,2.33-17h0q0-5.54-.31-11.8a40.58,40.58,0,0,0-2-11.16h0a12.74,12.74,0,0,1-.85-5.64,9.22,9.22,0,0,0-1.28-5.42h0a.87.87,0,0,1-.21-.64h0a3.11,3.11,0,0,1,.21-1.16,2.69,2.69,0,0,0,.21-1h0a11.35,11.35,0,0,0-1.8-5.63,74.53,74.53,0,0,0-4.15-6.28l-4.68-6.37a41,41,0,0,1-3.61-5.74h0c-.29-.71-1.35-1.6-3.19-2.66a13.32,13.32,0,0,1-4-3.3h0a7.05,7.05,0,0,0-5-2.76,7.28,7.28,0,0,1-4.78-2.13h0a21,21,0,0,0-3.72-1.38,18.58,18.58,0,0,0-5.42-1h0c-.57,0-1.7.85-3.4,2.56a71.86,71.86,0,0,0-5.42,6.16q-2.88,3.62-5.32,7.34a31.32,31.32,0,0,0-3.29,6h0a104.23,104.23,0,0,1-6,13.5,40.21,40.21,0,0,0-4.46,13.08h0a40.49,40.49,0,0,1-2.55,9.46,25.76,25.76,0,0,0-1.92,9.67h0a3.64,3.64,0,0,0,.43,1.81,3.21,3.21,0,0,1,.42,1.59h0a11.54,11.54,0,0,1-.1,1.6,10.06,10.06,0,0,0-.11,1.38h0a23.29,23.29,0,0,0,.85,6.27,22.65,22.65,0,0,1,.85,6.06h0a5.3,5.3,0,0,1-.32,1.92,4.83,4.83,0,0,0-.32,1.7h0a5.77,5.77,0,0,0,1.71,3.82,6.55,6.55,0,0,1,1.7,4.47h0a4,4,0,0,1-.22,1.27,4.08,4.08,0,0,0-.21,1.28h0a4.32,4.32,0,0,0,.53,1.17c.36.64.78,1.38,1.28,2.23s1,1.67,1.49,2.44.88,1.46,1.17,2h0a36.94,36.94,0,0,0,7.12,10.42,72.46,72.46,0,0,1,8,9.78h0l-.43.43c0-.15,0-.22-.1-.22s-.11-.07-.11-.21h0c.14,0,.21,0,.21.11S298.67,495.74,298.81,495.74Zm56.55-88.86h0a1.7,1.7,0,0,0-.64-.21,1.76,1.76,0,0,1-.64-.22h0c0,.57.14.85.43.85h0A1.25,1.25,0,0,0,355.36,406.88ZM280.1,480h0a.61.61,0,0,0,.42-.21h0c0-.28-.07-.43-.21-.43h0c-.28,0-.42.07-.42.22h0c0,.14,0,.21.1.21S280.1,479.87,280.1,480Zm68.24-94.82v.64a.19.19,0,0,0-.21-.21h0a.63.63,0,0,1,.21-.43Z"/></g><g id="small"><g id="sushi"><path class="cls-1" d="M192.88,78.79c-43.12,7.83-75.45,29.5-101.38,68-9.69,14.37-11.12,23-3.82,23a36.29,36.29,0,0,0,11-2.65,89.6,89.6,0,0,1,12.53-3.95l6.08-1.29-1.05,14c-1.41,18.84,2.16,40.81,8.09,49.82,6.88,10.43,13.68,13,44.72,16.84,53.33,6.63,96.52,16.45,131,29.81,22.08,8.55,45.1,14.12,58.42,14.14,13.14,0,24.36-6.2,30.32-16.8l4.28-7.62,12,.85c8.32.59,17.88-.52,31.4-3.63l19.43-4.47-4.73-7.6c-2.6-4.18-10.13-18.79-16.72-32.47Q389.17,120.84,286.9,87.56c-35.29-11.47-64.24-14.17-94-8.77m13.66,3.69c-21.9,6.94-43,25.23-54.23,47.09-6.3,12.22-6.32,12.31-1,5.71q32.88-40.57,70-50.62c8.45-2.27,9.08-2.72,4-2.83a40.09,40.09,0,0,1-8.61-1c-1.4-.46-6,.26-10.2,1.6m47.26,7.89c-28.61,5.09-56.73,23.9-67.36,45.06l-4.25,8.46,11.22-11.58c12.86-13.29,25.18-22.17,39.49-28.48,11.64-5.13,34.37-10.59,44.81-10.76,5.58-.1,6.39-.48,3.45-1.63C273,88.2,267.25,88,253.8,90.37m-105.08,8.5c-9.08,5.54-20.1,17.56-25.75,28.09-8.41,15.69-8.18,19.53.37,6.41,4.46-6.84,14.09-18.25,21.41-25.35,13.67-13.28,14.72-15.7,4-9.15m141.82,9.82c-20.11,2.54-35.6,10-51.13,24.49-14.7,13.74-19.86,22.41-6,10.12,13.15-11.69,32.74-21.91,50.65-26.42,9.3-2.34,17.5-2.87,32.53-2.12l20.09,1-6.7-3.41c-7.62-3.87-25-5.5-39.41-3.68m18.37,31.55c-13.87,3.68-28.08,10.71-36.36,18l-6.7,5.88,11.55-5.62c22.62-11,37.9-14.55,62.12-14.34,14.45.12,25.26,1.24,31.48,3.24,5.21,1.69,9.72,2.82,10,2.52,1.55-1.54-11.71-9.06-18.89-10.71-12-2.77-41-2.2-53.22,1M129.78,159.45c-3.48.78-4.19,2.66-5,13.29-1.27,15.85,1.33,39.1,5.21,46.61,4.74,9.17,9.85,11.18,36.42,14.4,55.67,6.74,83.11,12.94,135.85,30.71s69.09,18.24,79.22,2.25l3.78-6-13.76-5c-24-8.76-38.28-17.29-69.62-41.48-29.47-22.75-61.32-39.4-95.29-49.82-12.77-3.92-20.07-4.8-44-5.28-15.78-.32-30.52-.18-32.75.32m203.47,13.27c-11.12,2.7-32.91,12-31.46,13.49.43.42,4.23-.44,8.45-1.93,13.36-4.72,36.38-7.51,51.85-6.3,15.88,1.24,29.76,5.36,46.32,13.75l10.44,5.3L414,190.55c-12.35-16.34-51.32-25-80.72-17.83m15.18,37.34c-7.2.81-13.45,1.84-13.9,2.28s8.09,1.35,19,2a191.2,191.2,0,0,1,68,17.63c7.73,3.64,14.43,6.62,14.87,6.62s-.52-2.58-2.15-5.73c-7.64-14.77-52.2-26.62-85.81-22.82"/></g></g></svg>