<svg id="big" xmlns="http://www.w3.org/2000/svg" viewBox="0 0 540 540"><defs><style>.cls-1{fill:#d68048;fill-rule:evenodd;}</style></defs><g id="sushi"><path class="cls-1" d="M193.4,167.52C150.29,175.35,118,197,92,235.47c-9.68,14.37-11.12,23-3.82,23a36.29,36.29,0,0,0,11-2.65,89.3,89.3,0,0,1,12.54-4l6.07-1.29-1,14c-1.42,18.84,2.15,40.81,8.09,49.82,6.88,10.43,13.68,13,44.72,16.84,53.33,6.63,96.51,16.45,131,29.81,22.08,8.55,45.1,14.12,58.41,14.14,13.15,0,24.36-6.2,30.32-16.8l4.29-7.62,12,.85c8.31.59,17.88-.52,31.39-3.63l19.44-4.47-4.73-7.6c-2.61-4.18-10.13-18.79-16.73-32.47q-45.24-93.86-147.52-127.13c-35.3-11.47-64.24-14.17-94-8.77m13.66,3.69c-21.89,6.94-43,25.23-54.23,47.09-6.3,12.22-6.31,12.31-1,5.71q32.87-40.57,70-50.62c8.45-2.27,9.09-2.72,4-2.83a40,40,0,0,1-8.61-.95c-1.41-.46-6,.26-10.21,1.6m47.26,7.89c-28.6,5.09-56.72,23.9-67.36,45.06l-4.25,8.46L193.93,221c12.87-13.29,25.19-22.17,39.5-28.48,11.64-5.13,34.36-10.59,44.81-10.76,5.58-.1,6.38-.48,3.45-1.63-8.22-3.24-13.92-3.46-27.37-1.07m-105.07,8.5c-9.09,5.54-20.1,17.56-25.75,28.09-8.41,15.69-8.19,19.53.37,6.41,4.46-6.84,14.09-18.25,21.4-25.35,13.67-13.28,14.73-15.7,4-9.15m141.82,9.82c-20.12,2.54-35.61,10-51.14,24.49-14.7,13.74-19.86,22.41-6,10.12,13.16-11.69,32.75-21.91,50.66-26.42,9.3-2.34,17.49-2.87,32.52-2.12l20.09,1-6.69-3.41c-7.62-3.87-25-5.5-39.41-3.68M309.43,229c-13.86,3.68-28.07,10.71-36.35,18l-6.7,5.88,11.55-5.62c22.61-11,37.9-14.55,62.11-14.34,14.46.12,25.26,1.24,31.49,3.24,5.21,1.68,9.72,2.82,10,2.52,1.54-1.54-11.71-9.06-18.89-10.71-12-2.77-41-2.2-53.23,1M130.3,248.18c-3.47.78-4.19,2.66-5,13.29-1.27,15.85,1.32,39.1,5.2,46.61,4.74,9.16,9.85,11.18,36.42,14.4,55.68,6.74,83.11,12.94,135.85,30.71s69.09,18.24,79.22,2.25l3.78-6-13.75-5c-24-8.76-38.28-17.29-69.63-41.48-29.47-22.75-61.32-39.4-95.29-49.82-12.76-3.92-20.07-4.8-44-5.28-15.79-.32-30.53-.18-32.76.32m203.48,13.27c-11.13,2.7-32.92,12-31.47,13.49.43.42,4.23-.44,8.45-1.93,13.37-4.72,36.38-7.51,51.85-6.3,15.89,1.24,29.77,5.36,46.32,13.75l10.45,5.3-4.89-6.48c-12.34-16.34-51.31-24.95-80.71-17.83M349,298.79c-7.21.81-13.46,1.84-13.9,2.28s8.09,1.35,19,2a191.09,191.09,0,0,1,68,17.63c7.74,3.64,14.43,6.62,14.88,6.62s-.53-2.58-2.16-5.73c-7.63-14.77-52.2-26.62-85.8-22.82"/></g></svg>